<svg width="250" height="250" viewBox="0 0 250 250" fill="none" xmlns="http://www.w3.org/2000/svg">
<rect width="250" height="250" rx="30" fill="#F6F8FC"/>
<g filter="url(#filter0_d_14_155)">
<path fill-rule="evenodd" clip-rule="evenodd" d="M47 38C30.4315 38 17 51.4315 17 68V156C17 172.569 30.4315 186 47 186H203C219.569 186 233 172.569 233 156V68C233 51.4315 219.569 38 203 38H47ZM48.5 199C44.9101 199 42 201.91 42 205.5C42 209.09 44.9101 212 48.5 212H201.5C205.09 212 208 209.09 208 205.5C208 201.91 205.09 199 201.5 199H48.5Z" fill="url(#paint0_linear_14_155)"/>
<g filter="url(#filter1_d_14_155)">
<path d="M155.431 106.02C161.698 109.937 161.698 119.063 155.431 122.98L111.55 150.404C104.889 154.567 96.25 149.779 96.25 141.924V87.0756C96.25 79.2214 104.889 74.4329 111.55 78.5955L155.431 106.02Z" fill="url(#paint1_linear_14_155)"/>
</g>
</g>
<defs>
<filter id="filter0_d_14_155" x="10" y="34" width="230" height="188" filterUnits="userSpaceOnUse" color-interpolation-filters="sRGB">
<feFlood flood-opacity="0" result="BackgroundImageFix"/>
<feColorMatrix in="SourceAlpha" type="matrix" values="0 0 0 0 0 0 0 0 0 0 0 0 0 0 0 0 0 0 127 0" result="hardAlpha"/>
<feOffset dy="3"/>
<feGaussianBlur stdDeviation="3.5"/>
<feComposite in2="hardAlpha" operator="out"/>
<feColorMatrix type="matrix" values="0 0 0 0 0 0 0 0 0 0 0 0 0 0 0 0 0 0 0.2 0"/>
<feBlend mode="normal" in2="BackgroundImageFix" result="effect1_dropShadow_14_155"/>
<feBlend mode="normal" in="SourceGraphic" in2="effect1_dropShadow_14_155" result="shape"/>
</filter>
<filter id="filter1_d_14_155" x="96.25" y="77.0596" width="63.8813" height="75.8807" filterUnits="userSpaceOnUse" color-interpolation-filters="sRGB">
<feFlood flood-opacity="0" result="BackgroundImageFix"/>
<feColorMatrix in="SourceAlpha" type="matrix" values="0 0 0 0 0 0 0 0 0 0 0 0 0 0 0 0 0 0 127 0" result="hardAlpha"/>
<feOffset dy="1"/>
<feComposite in2="hardAlpha" operator="out"/>
<feColorMatrix type="matrix" values="0 0 0 0 0 0 0 0 0 0 0 0 0 0 0 0 0 0 0.1 0"/>
<feBlend mode="normal" in2="BackgroundImageFix" result="effect1_dropShadow_14_155"/>
<feBlend mode="normal" in="SourceGraphic" in2="effect1_dropShadow_14_155" result="shape"/>
</filter>
<linearGradient id="paint0_linear_14_155" x1="207.5" y1="206" x2="33.5001" y2="63.9999" gradientUnits="userSpaceOnUse">
<stop stop-color="#4D83EC"/>
<stop offset="1" stop-color="#7BCCBF"/>
</linearGradient>
<linearGradient id="paint1_linear_14_155" x1="169" y1="114.5" x2="72" y2="114.5" gradientUnits="userSpaceOnUse">
<stop stop-color="white"/>
<stop offset="0.0001" stop-color="white"/>
<stop offset="1" stop-color="white"/>
</linearGradient>
</defs>
</svg>
