<svg width="250" height="250" viewBox="0 0 250 250" fill="none" xmlns="http://www.w3.org/2000/svg">
<rect width="250" height="250" rx="30" fill="#F6F8FC"/>
<g filter="url(#filter0_d_14_203)">
<circle cx="130" cy="125" r="80.5" fill="url(#paint0_angular_14_203)"/>
<circle cx="130.5" cy="125.5" r="68" fill="white"/>
<path d="M59.0153 107.931C57.9265 108.457 56.6238 107.904 56.2458 106.755L50.5445 89.436C50.0071 87.8033 51.6435 86.298 53.2257 86.9696L75.3458 96.359C76.9281 97.0307 76.982 99.2534 75.4342 100.001L59.0153 107.931Z" fill="#3162C9"/>
<g filter="url(#filter1_d_14_203)">
<path fill-rule="evenodd" clip-rule="evenodd" d="M126.679 129.629C125.363 128.728 124.5 127.215 124.5 125.5V89.5C124.5 86.7386 126.739 84.5 129.5 84.5C132.261 84.5 134.5 86.7386 134.5 89.5V123.308L168.989 157.796C170.941 159.749 170.941 162.915 168.989 164.868C167.036 166.82 163.87 166.82 161.918 164.868L126.679 129.629Z" fill="url(#paint1_linear_14_203)"/>
</g>
</g>
<defs>
<filter id="filter0_d_14_203" x="42.5" y="40.5" width="175" height="175" filterUnits="userSpaceOnUse" color-interpolation-filters="sRGB">
<feFlood flood-opacity="0" result="BackgroundImageFix"/>
<feColorMatrix in="SourceAlpha" type="matrix" values="0 0 0 0 0 0 0 0 0 0 0 0 0 0 0 0 0 0 127 0" result="hardAlpha"/>
<feOffset dy="3"/>
<feGaussianBlur stdDeviation="3.5"/>
<feComposite in2="hardAlpha" operator="out"/>
<feColorMatrix type="matrix" values="0 0 0 0 0 0 0 0 0 0 0 0 0 0 0 0 0 0 0.2 0"/>
<feBlend mode="normal" in2="BackgroundImageFix" result="effect1_dropShadow_14_203"/>
<feBlend mode="normal" in="SourceGraphic" in2="effect1_dropShadow_14_203" result="shape"/>
</filter>
<filter id="filter1_d_14_203" x="119.5" y="81.5" width="55.9533" height="91.832" filterUnits="userSpaceOnUse" color-interpolation-filters="sRGB">
<feFlood flood-opacity="0" result="BackgroundImageFix"/>
<feColorMatrix in="SourceAlpha" type="matrix" values="0 0 0 0 0 0 0 0 0 0 0 0 0 0 0 0 0 0 127 0" result="hardAlpha"/>
<feOffset dy="2"/>
<feGaussianBlur stdDeviation="2.5"/>
<feComposite in2="hardAlpha" operator="out"/>
<feColorMatrix type="matrix" values="0 0 0 0 0 0 0 0 0 0 0 0 0 0 0 0 0 0 0.15 0"/>
<feBlend mode="normal" in2="BackgroundImageFix" result="effect1_dropShadow_14_203"/>
<feBlend mode="normal" in="SourceGraphic" in2="effect1_dropShadow_14_203" result="shape"/>
</filter>
<radialGradient id="paint0_angular_14_203" cx="0" cy="0" r="1" gradientUnits="userSpaceOnUse" gradientTransform="translate(128 128.75) rotate(-154.449) scale(63.1788)">
<stop stop-color="#3061C8"/>
<stop offset="1" stop-color="#6ABCFB"/>
</radialGradient>
<linearGradient id="paint1_linear_14_203" x1="167.575" y1="166.282" x2="125.337" y2="122.724" gradientUnits="userSpaceOnUse">
<stop offset="0.0885417" stop-color="#414347"/>
<stop offset="1" stop-color="#6B6E70"/>
</linearGradient>
</defs>
</svg>
