<svg width="250" height="250" viewBox="0 0 250 250" fill="none" xmlns="http://www.w3.org/2000/svg">
<rect width="250" height="250" rx="30" fill="#F6F8FC"/>
<g filter="url(#filter0_d_14_179)">
<path fill-rule="evenodd" clip-rule="evenodd" d="M62 95.5C50.9543 95.5 42 104.454 42 115.5V187.5C42 198.546 50.9543 207.5 62 207.5H98V147.24C98 144.479 100.239 142.24 103 142.24H149C151.761 142.24 154 144.479 154 147.24V207.5H189C200.046 207.5 209 198.546 209 187.5V115.5C209 104.454 200.046 95.5 189 95.5H62Z" fill="url(#paint0_linear_14_179)"/>
<g filter="url(#filter1_d_14_179)">
<path fill-rule="evenodd" clip-rule="evenodd" d="M36 122.5C40.4126 122.5 44.3803 120.595 47.125 117.562C49.8697 120.595 53.8373 122.5 58.25 122.5C62.6627 122.5 66.6303 120.595 69.375 117.562C72.1197 120.595 76.0873 122.5 80.5 122.5C84.9127 122.5 88.8803 120.595 91.625 117.562C94.3697 120.595 98.3373 122.5 102.75 122.5C107.163 122.5 111.13 120.595 113.875 117.562C116.62 120.595 120.587 122.5 125 122.5C129.413 122.5 133.38 120.595 136.125 117.562C138.87 120.595 142.837 122.5 147.25 122.5C151.663 122.5 155.63 120.595 158.375 117.562C161.12 120.595 165.087 122.5 169.5 122.5C173.913 122.5 177.88 120.595 180.625 117.562C183.37 120.595 187.337 122.5 191.75 122.5C196.163 122.5 200.13 120.595 202.875 117.562C205.62 120.595 209.587 122.5 214 122.5C222.284 122.5 229 115.784 229 107.5C229 99.2157 222.284 92.5 214 92.5C209.587 92.5 205.62 94.4054 202.875 97.4383C200.13 94.4054 196.163 92.5 191.75 92.5C187.337 92.5 183.37 94.4054 180.625 97.4383C177.88 94.4054 173.913 92.5 169.5 92.5C165.087 92.5 161.12 94.4054 158.375 97.4383C155.63 94.4054 151.663 92.5 147.25 92.5C142.837 92.5 138.87 94.4054 136.125 97.4383C133.38 94.4054 129.413 92.5 125 92.5C120.587 92.5 116.62 94.4054 113.875 97.4383C111.13 94.4054 107.163 92.5 102.75 92.5C98.3373 92.5 94.3697 94.4054 91.625 97.4383C88.8803 94.4054 84.9127 92.5 80.5 92.5C76.0873 92.5 72.1197 94.4054 69.375 97.4383C66.6303 94.4054 62.6627 92.5 58.25 92.5C53.8373 92.5 49.8697 94.4054 47.125 97.4383C44.3803 94.4054 40.4126 92.5 36 92.5C27.7157 92.5 21 99.2157 21 107.5C21 115.784 27.7157 122.5 36 122.5Z" fill="url(#paint1_linear_14_179)"/>
</g>
<g filter="url(#filter2_d_14_179)">
<path d="M41.0714 49.094C42.5051 45.1362 46.2639 42.5 50.4734 42.5H199.527C203.736 42.5 207.495 45.1362 208.929 49.094L229 104.5H21L41.0714 49.094Z" fill="url(#paint2_linear_14_179)"/>
</g>
</g>
<defs>
<filter id="filter0_d_14_179" x="14" y="38.5" width="222" height="179" filterUnits="userSpaceOnUse" color-interpolation-filters="sRGB">
<feFlood flood-opacity="0" result="BackgroundImageFix"/>
<feColorMatrix in="SourceAlpha" type="matrix" values="0 0 0 0 0 0 0 0 0 0 0 0 0 0 0 0 0 0 127 0" result="hardAlpha"/>
<feOffset dy="3"/>
<feGaussianBlur stdDeviation="3.5"/>
<feComposite in2="hardAlpha" operator="out"/>
<feColorMatrix type="matrix" values="0 0 0 0 0 0 0 0 0 0 0 0 0 0 0 0 0 0 0.2 0"/>
<feBlend mode="normal" in2="BackgroundImageFix" result="effect1_dropShadow_14_179"/>
<feBlend mode="normal" in="SourceGraphic" in2="effect1_dropShadow_14_179" result="shape"/>
</filter>
<filter id="filter1_d_14_179" x="16" y="89.5" width="218" height="40" filterUnits="userSpaceOnUse" color-interpolation-filters="sRGB">
<feFlood flood-opacity="0" result="BackgroundImageFix"/>
<feColorMatrix in="SourceAlpha" type="matrix" values="0 0 0 0 0 0 0 0 0 0 0 0 0 0 0 0 0 0 127 0" result="hardAlpha"/>
<feOffset dy="2"/>
<feGaussianBlur stdDeviation="2.5"/>
<feComposite in2="hardAlpha" operator="out"/>
<feColorMatrix type="matrix" values="0 0 0 0 0 0 0 0 0 0 0 0 0 0 0 0 0 0 0.05 0"/>
<feBlend mode="normal" in2="BackgroundImageFix" result="effect1_dropShadow_14_179"/>
<feBlend mode="normal" in="SourceGraphic" in2="effect1_dropShadow_14_179" result="shape"/>
</filter>
<filter id="filter2_d_14_179" x="16" y="39.5" width="218" height="72" filterUnits="userSpaceOnUse" color-interpolation-filters="sRGB">
<feFlood flood-opacity="0" result="BackgroundImageFix"/>
<feColorMatrix in="SourceAlpha" type="matrix" values="0 0 0 0 0 0 0 0 0 0 0 0 0 0 0 0 0 0 127 0" result="hardAlpha"/>
<feOffset dy="2"/>
<feGaussianBlur stdDeviation="2.5"/>
<feComposite in2="hardAlpha" operator="out"/>
<feColorMatrix type="matrix" values="0 0 0 0 0 0 0 0 0 0 0 0 0 0 0 0 0 0 0.05 0"/>
<feBlend mode="normal" in2="BackgroundImageFix" result="effect1_dropShadow_14_179"/>
<feBlend mode="normal" in="SourceGraphic" in2="effect1_dropShadow_14_179" result="shape"/>
</filter>
<linearGradient id="paint0_linear_14_179" x1="125.5" y1="54.0512" x2="125.5" y2="207.5" gradientUnits="userSpaceOnUse">
<stop stop-color="#3061C8"/>
<stop offset="1" stop-color="#69BAFA"/>
</linearGradient>
<linearGradient id="paint1_linear_14_179" x1="128.5" y1="180.5" x2="159.437" y2="76.7706" gradientUnits="userSpaceOnUse">
<stop offset="0.0001" stop-color="#7BCCBF"/>
<stop offset="1" stop-color="#487DE3"/>
</linearGradient>
<linearGradient id="paint2_linear_14_179" x1="21" y1="42.5" x2="110.702" y2="178.717" gradientUnits="userSpaceOnUse">
<stop stop-color="#D9D9D9"/>
<stop offset="0.0001" stop-color="#7BCCBF"/>
<stop offset="1" stop-color="#4D83EC"/>
</linearGradient>
</defs>
</svg>
