<svg width="250" height="250" viewBox="0 0 250 250" fill="none" xmlns="http://www.w3.org/2000/svg">
<rect width="250" height="250" rx="30" fill="#F6F8FC"/>
<g filter="url(#filter0_d_14_211)">
<g filter="url(#filter1_d_14_211)">
<path fill-rule="evenodd" clip-rule="evenodd" d="M151.45 122.57C165.434 122.57 176.771 108.209 176.771 92.7261C176.771 77.2429 165.434 66.5 151.45 66.5C137.465 66.5 126.128 77.2429 126.128 92.7261C126.128 108.209 137.465 122.57 151.45 122.57ZM140.449 133.422C117.557 133.422 99 151.979 99 174.871C99 179.449 102.712 183.161 107.29 183.161H194.71C199.289 183.161 203 179.449 203 174.871C203 151.979 184.443 133.422 161.551 133.422H151H140.449Z" fill="url(#paint0_linear_14_211)"/>
</g>
<g filter="url(#filter2_d_14_211)">
<path fill-rule="evenodd" clip-rule="evenodd" d="M105 122.5C120.464 122.5 133 106.621 133 89.5C133 72.3792 120.464 60.5 105 60.5C89.536 60.5 77 72.3792 77 89.5C77 106.621 89.536 122.5 105 122.5ZM92.8333 134.5C67.5203 134.5 47 155.02 47 180.333C47 185.396 51.1041 189.5 56.1667 189.5H152.833C157.896 189.5 162 185.396 162 180.333C162 155.02 141.48 134.5 116.167 134.5H104.5H92.8333Z" fill="url(#paint1_linear_14_211)"/>
</g>
</g>
<defs>
<filter id="filter0_d_14_211" x="40" y="56.5" width="170" height="143" filterUnits="userSpaceOnUse" color-interpolation-filters="sRGB">
<feFlood flood-opacity="0" result="BackgroundImageFix"/>
<feColorMatrix in="SourceAlpha" type="matrix" values="0 0 0 0 0 0 0 0 0 0 0 0 0 0 0 0 0 0 127 0" result="hardAlpha"/>
<feOffset dy="3"/>
<feGaussianBlur stdDeviation="3.5"/>
<feComposite in2="hardAlpha" operator="out"/>
<feColorMatrix type="matrix" values="0 0 0 0 0 0 0 0 0 0 0 0 0 0 0 0 0 0 0.2 0"/>
<feBlend mode="normal" in2="BackgroundImageFix" result="effect1_dropShadow_14_211"/>
<feBlend mode="normal" in="SourceGraphic" in2="effect1_dropShadow_14_211" result="shape"/>
</filter>
<filter id="filter1_d_14_211" x="94" y="63.5" width="114" height="126.661" filterUnits="userSpaceOnUse" color-interpolation-filters="sRGB">
<feFlood flood-opacity="0" result="BackgroundImageFix"/>
<feColorMatrix in="SourceAlpha" type="matrix" values="0 0 0 0 0 0 0 0 0 0 0 0 0 0 0 0 0 0 127 0" result="hardAlpha"/>
<feOffset dy="2"/>
<feGaussianBlur stdDeviation="2.5"/>
<feComposite in2="hardAlpha" operator="out"/>
<feColorMatrix type="matrix" values="0 0 0 0 0 0 0 0 0 0 0 0 0 0 0 0 0 0 0.05 0"/>
<feBlend mode="normal" in2="BackgroundImageFix" result="effect1_dropShadow_14_211"/>
<feBlend mode="normal" in="SourceGraphic" in2="effect1_dropShadow_14_211" result="shape"/>
</filter>
<filter id="filter2_d_14_211" x="42" y="57.5" width="125" height="139" filterUnits="userSpaceOnUse" color-interpolation-filters="sRGB">
<feFlood flood-opacity="0" result="BackgroundImageFix"/>
<feColorMatrix in="SourceAlpha" type="matrix" values="0 0 0 0 0 0 0 0 0 0 0 0 0 0 0 0 0 0 127 0" result="hardAlpha"/>
<feOffset dy="2"/>
<feGaussianBlur stdDeviation="2.5"/>
<feComposite in2="hardAlpha" operator="out"/>
<feColorMatrix type="matrix" values="0 0 0 0 0 0 0 0 0 0 0 0 0 0 0 0 0 0 0.05 0"/>
<feBlend mode="normal" in2="BackgroundImageFix" result="effect1_dropShadow_14_211"/>
<feBlend mode="normal" in="SourceGraphic" in2="effect1_dropShadow_14_211" result="shape"/>
</filter>
<linearGradient id="paint0_linear_14_211" x1="131" y1="55" x2="199" y2="183.5" gradientUnits="userSpaceOnUse">
<stop stop-color="#A2D7CF"/>
<stop offset="1" stop-color="#70CFBF"/>
</linearGradient>
<linearGradient id="paint1_linear_14_211" x1="52" y1="55" x2="168" y2="194.5" gradientUnits="userSpaceOnUse">
<stop stop-color="#6ABCFB"/>
<stop offset="1" stop-color="#3061C8"/>
</linearGradient>
</defs>
</svg>
